<?xml version="1.0" encoding="utf-8"?>
<!-- Generator: Adobe Illustrator 16.0.0, SVG Export Plug-In . SVG Version: 6.00 Build 0)  -->
<!DOCTYPE svg PUBLIC "-//W3C//DTD SVG 1.1//EN" "http://www.w3.org/Graphics/SVG/1.1/DTD/svg11.dtd">
<svg version="1.1" id="Layer_1" xmlns="http://www.w3.org/2000/svg" xmlns:xlink="http://www.w3.org/1999/xlink" x="0px" y="0px"
	 width="73.182px" height="33.147px" viewBox="0 0 73.182 33.147" enable-background="new 0 0 73.182 33.147" xml:space="preserve">
<path fill="#C5CCE8" d="M37.607,6.093V4.512h4.083V8.25c-0.396,0.384-0.971,0.722-1.725,1.014s-1.516,0.439-2.288,0.439
	c-0.982,0-1.837-0.206-2.567-0.618s-1.278-1.001-1.645-1.767c-0.367-0.766-0.55-1.599-0.55-2.5c0-0.977,0.205-1.845,0.614-2.604
	c0.41-0.759,1.009-1.341,1.799-1.747C35.93,0.155,36.679,0,37.575,0c1.165,0,2.075,0.244,2.73,0.732
	c0.654,0.488,1.076,1.164,1.264,2.025l-1.883,0.352c-0.131-0.461-0.379-0.823-0.744-1.091c-0.365-0.267-0.821-0.399-1.367-0.399
	c-0.828,0-1.486,0.262-1.974,0.786c-0.489,0.525-0.733,1.305-0.733,2.338c0,1.112,0.247,1.947,0.742,2.505
	c0.495,0.557,1.144,0.835,1.946,0.835c0.397,0,0.794-0.077,1.194-0.233s0.741-0.345,1.027-0.566v-1.19H37.607z"/>
<polygon fill="#C5CCE8" points="45.549,9.542 45.549,1.746 42.766,1.746 42.766,0.159 50.221,0.159 50.221,1.746 47.445,1.746 
	47.445,9.542 "/>
<path fill="#C5CCE8" d="M51.445,9.543V0.159h3.04c1.152,0,1.902,0.048,2.252,0.142c0.538,0.141,0.988,0.447,1.352,0.918
	c0.362,0.472,0.543,1.081,0.543,1.828c0,0.576-0.104,1.06-0.313,1.453c-0.209,0.392-0.474,0.699-0.796,0.924
	c-0.322,0.224-0.65,0.373-0.982,0.444c-0.453,0.091-1.107,0.135-1.966,0.135h-1.235v3.54H51.445z M53.338,1.747v2.662h1.037
	c0.748,0,1.246-0.049,1.498-0.146c0.252-0.099,0.449-0.252,0.592-0.461s0.215-0.452,0.215-0.73c0-0.341-0.1-0.623-0.301-0.845
	s-0.455-0.36-0.762-0.416c-0.227-0.042-0.681-0.063-1.363-0.063H53.338z"/>
<rect x="29.736" y="11.504" fill="#C5CCE8" width="42.467" height="0.94"/>
<path fill="#FFFFFF" d="M43.24,31.146h-3.763l-1.494-3.891h-6.846l-1.414,3.891h-3.668l6.671-17.128h3.656L43.24,31.146z
	 M36.873,24.369l-2.36-6.356L32.2,24.369H36.873z"/>
<path fill="#FFFFFF" d="M45.074,31.146V14.019h5.549c2.103,0,3.474,0.086,4.112,0.257c0.982,0.257,1.803,0.815,2.465,1.676
	c0.663,0.861,0.994,1.973,0.994,3.336c0,1.051-0.191,1.935-0.573,2.652c-0.382,0.716-0.866,1.278-1.454,1.688
	s-1.186,0.679-1.794,0.812c-0.825,0.163-2.021,0.245-3.586,0.245h-2.255v6.461H45.074z M48.532,16.915v4.86h1.893
	c1.362,0,2.274-0.089,2.733-0.27c0.46-0.179,0.82-0.459,1.081-0.841c0.261-0.381,0.391-0.825,0.391-1.332
	c0-0.622-0.183-1.136-0.549-1.542c-0.365-0.405-0.828-0.658-1.39-0.759c-0.413-0.078-1.242-0.117-2.488-0.117H48.532z"/>
<polygon fill="#FFFFFF" points="61.125,31.145 61.125,14.159 64.583,14.159 64.583,28.259 73.182,28.259 73.182,31.145 "/>
<path fill="#FFFFFF" d="M9.338,18.792h3.878l2.578-6.15c-0.612-0.3-1.135-0.749-1.518-1.307l-6.415,2.963v3.018
	C7.861,18.127,8.525,18.792,9.338,18.792"/>
<path fill="#FFFFFF" d="M25.325,0.165H9.338c-0.812,0-1.477,0.665-1.477,1.477v11.479l5.937-2.742
	c-0.135-0.398-0.212-0.823-0.212-1.268c0-2.17,1.76-3.93,3.93-3.93c2.171,0,3.931,1.76,3.931,3.93c0,2.171-1.76,3.932-3.931,3.932
	c-0.24,0-0.474-0.025-0.702-0.066l-2.438,5.816h10.949c0.813,0,1.477-0.665,1.477-1.479V1.642
	C26.802,0.83,26.138,0.165,25.325,0.165"/>
<path fill="#FFFFFF" d="M13.16,26.863c0,1.321-1.072,2.394-2.394,2.394c-1.322,0-2.394-1.072-2.394-2.394
	c0-0.62,0.238-1.185,0.625-1.609l-3.35-4.821c-0.695,0.129-1.226,0.74-1.226,1.472v9.744c0,0.824,0.674,1.499,1.498,1.499h9.832
	c0.824,0,1.499-0.675,1.499-1.499v-9.744c0-0.825-0.675-1.499-1.499-1.499H13.7l-1.819,4.34
	C12.641,25.146,13.16,25.942,13.16,26.863"/>
<path fill="#FFFFFF" d="M9.875,24.642c0.276-0.11,0.576-0.173,0.891-0.173c0.023,0,0.046,0.003,0.069,0.003l1.705-4.066H6.931
	L9.875,24.642z"/>
<path fill="#C5CCE8" d="M6.674,17.172v-2.325l-2.08,0.961c-0.016,0.303-0.124,0.58-0.299,0.806l1.368,1.969
	C6.25,18.377,6.674,17.825,6.674,17.172"/>
<path fill="#FFFFFF" d="M3.15,17.182c-0.802,0-1.453-0.65-1.453-1.453c0-0.802,0.651-1.452,1.453-1.452
	c0.442,0,0.832,0.201,1.099,0.512l2.417-1.116c-0.044-0.785-0.695-1.416-1.49-1.416H1.498C0.674,12.256,0,12.932,0,13.755v3.417
	c0,0.824,0.674,1.499,1.498,1.499h2.925l-1.051-1.512C3.299,17.17,3.226,17.182,3.15,17.182"/>
</svg>
