<?xml version="1.0" encoding="utf-8"?>
<!-- Generator: Adobe Illustrator 16.0.0, SVG Export Plug-In . SVG Version: 6.00 Build 0)  -->
<!DOCTYPE svg PUBLIC "-//W3C//DTD SVG 1.1//EN" "http://www.w3.org/Graphics/SVG/1.1/DTD/svg11.dtd">
<svg version="1.1" id="Layer_1" xmlns="http://www.w3.org/2000/svg" xmlns:xlink="http://www.w3.org/1999/xlink" x="0px" y="0px"
	 width="86.447px" height="32.509px" viewBox="0 0 86.447 32.509" enable-background="new 0 0 86.447 32.509" xml:space="preserve">
<path fill="#FFFFFF" d="M10.54,32.273c-0.501,0.297-0.971,0.349-1.061-0.225c-0.128-0.831-0.635-9.073-0.662-9.585
	c-0.017-0.34-0.245-1.002-0.59-1.248l-8.196-6.183c-0.107-0.137,0.083-0.199,0.274-0.086c0.192,0.112,9.871,5.409,10.657,5.846
	c-0.099-0.293-0.297-0.488-0.544-0.674c-0.95-0.715-8.196-5.957-8.527-6.136c-0.111-0.061-0.044-0.326,0.27-0.135
	c0.314,0.189,9.53,5.511,10.349,5.878c-0.135-0.271-0.522-0.543-0.724-0.675c-0.208-0.132-7.635-5.68-8.176-6.074
	c-0.132-0.098,0.118-0.309,0.327-0.168c0.539,0.356,9.57,5.562,9.904,5.777c0.122,0.078,0.288,0.106,0.325,0.083
	c-0.39-0.319-8.363-6.439-8.701-6.814c-0.073-0.082,0.069-0.267,0.36-0.113c0.192,0.102,8.426,5.254,9.778,6.023
	c0.152,0.085,0.104,0.017,0.172-0.13c-0.334-0.353-8.326-6.523-8.713-6.859c-0.155-0.133,0.012-0.233,0.193-0.14
	c0.181,0.095,8.527,4.708,9.029,5.051c0.336,0.227,1.081,0.638,1.174,1.686c0.094,1.047,0.099,8.589,0.041,9.551
	c-0.058,0.961-0.396,1.488-0.805,1.73C16.286,28.896,11.19,31.888,10.54,32.273"/>
<path fill="#FFFFFF" d="M8.212,0.854c0-0.581,0.194-1.014,0.733-0.798c0.781,0.313,8.132,4.077,8.585,4.314
	c0.302,0.158,0.841,0.28,1.229,0.106l9.62-4.118c0.172-0.021,0.129,0.172-0.065,0.279c-0.194,0.108-9.662,5.976-10.439,6.429
	c0.302,0.063,0.771-0.271,1.056-0.389c1.1-0.454,9.081-3.991,9.404-4.185c0.108-0.065,0.303,0.13-0.021,0.302
	c-0.323,0.173-9.576,5.63-10.31,6.147c0.302,0.021,0.734-0.173,0.949-0.28c0.22-0.11,8.811-3.771,9.426-4.033
	c0.151-0.064,0.205,0.257-0.022,0.367c-0.582,0.279-9.696,5.495-10.051,5.672c-0.129,0.064-0.237,0.194-0.237,0.237
	c0.475-0.173,9.901-4.042,10.396-4.142c0.108-0.021,0.194,0.195-0.086,0.366c-0.28,0.173-8.882,4.919-10.051,5.587
	c-0.151,0.086-0.259,0.216-0.238,0.302c0.475-0.107,9.802-4.022,10.289-4.185c0.194-0.064,0.194,0.13,0.021,0.238
	c-0.173,0.107-8.293,4.918-8.843,5.177c-0.367,0.172-1.1,0.603-2.049,0.151c-0.949-0.454-7.441-4.293-8.239-4.832
	C8.471,9.029,8.19,8.469,8.19,7.994S8.212,1.61,8.212,0.854"/>
<path fill="#FFFFFF" d="M36.484,14.709c0.505,0.29,0.712,0.583,0.257,0.943c-0.661,0.52-7.376,4.944-7.808,5.219
	c-0.287,0.183-0.905,0.742-0.949,1.165l-1.196,10.402c-0.068,0.16-0.214,0.026-0.211-0.196c0.003-0.222-0.289-11.354-0.295-12.253
	c-0.207,0.229-0.199,0.575-0.239,0.882c-0.156,1.18-1.129,10.062-1.122,10.438c0.003,0.126-0.262,0.197-0.251-0.169
	c0.011-0.367,0.004-11.081-0.079-11.975c-0.17,0.251-0.216,0.722-0.23,0.962c-0.014,0.246-1.216,9.396-1.295,10.061
	c-0.019,0.163-0.233,0.17-0.214-0.08c0.047-0.645,0.069-11.146,0.093-11.542c0.008-0.143-0.05-0.302-0.088-0.323
	c-0.087,0.498-1.441,10.432-1.603,10.91c-0.035,0.104-0.254,0.238-0.264-0.092c-0.01-0.328,0.26-10.209,0.264-11.556
	c0.001-0.173-0.154-0.273-0.24-0.297c-0.143,0.464-1.399,10.501-1.501,11.004c-0.041,0.2-0.209,0.104-0.216-0.099
	c-0.008-0.204-0.13-9.643-0.08-10.247c0.034-0.404,0.025-1.254,0.891-1.852c0.866-0.597,7.43-4.312,8.295-4.733
	c0.866-0.425,1.491-0.388,1.903-0.15C30.717,11.368,35.83,14.333,36.484,14.709"/>
<path fill="#FFFFFF" d="M43.979,9.731h-2.99V6.716h2.99V9.731z M43.979,25.908h-2.99V11.841h2.99V25.908z"/>
<path fill="#FFFFFF" d="M49.163,6.717v6.993c1.015-1.521,2.481-2.322,4.378-2.322c3.444,0,6.007,2.855,6.007,7.555
	c0,4.565-2.51,7.42-6.034,7.42c-1.895,0-3.202-0.72-4.378-2.295v1.842h-2.854V6.717H49.163z M49.11,18.889
	c0,3.177,1.36,4.857,3.736,4.857c2.27,0,3.685-1.734,3.685-4.777c0-3.203-1.415-4.965-3.685-4.965
	C50.39,14.004,49.11,15.658,49.11,18.889"/>
<path fill="#FFFFFF" d="M64.178,9.731h-2.99V6.716h2.99V9.731z M64.178,25.908h-2.99V11.841h2.99V25.908z"/>
<path fill="#FFFFFF" d="M75.451,16.646c-0.161-1.683-1.309-2.696-3.043-2.696c-2.323,0-3.523,1.655-3.523,4.911
	c0,3.177,1.227,4.859,3.443,4.859c1.787,0,2.936-1.041,3.202-2.964h2.856c-0.24,3.471-2.589,5.606-6.354,5.606
	c-3.816,0-6.245-2.83-6.245-7.448c0-4.725,2.482-7.527,6.54-7.527c3.55,0,5.871,1.975,6.059,5.259H75.451z"/>
<path fill="#FFFFFF" d="M84.096,7.971v3.87h2.351v2.216h-2.351v8.276c0,0.934,0.188,1.28,1.174,1.28
	c0.214,0,0.401-0.026,0.588-0.026l0.589-0.027v2.376c-0.803,0.08-1.496,0.16-2.11,0.16c-2.483,0-3.203-1.014-3.203-3.39v-8.649
	h-2.002v-2.216h2.002v-3.87H84.096z"/>
</svg>
