<?xml version="1.0" encoding="utf-8"?>
<!-- Generator: Adobe Illustrator 16.0.0, SVG Export Plug-In . SVG Version: 6.00 Build 0)  -->
<!DOCTYPE svg PUBLIC "-//W3C//DTD SVG 1.1//EN" "http://www.w3.org/Graphics/SVG/1.1/DTD/svg11.dtd">
<svg version="1.1" id="Layer_1" xmlns="http://www.w3.org/2000/svg" xmlns:xlink="http://www.w3.org/1999/xlink" x="0px" y="0px"
	 width="108.971px" height="43.283px" viewBox="0 0 108.971 43.283" enable-background="new 0 0 108.971 43.283"
	 xml:space="preserve">
<path fill="#FFFFFF" d="M0.882,43.282c-0.982,0-1.139-0.659-0.497-1.525c0.616-0.833,1.78-1.535,2.688-1.535
	c0.522,0,0.743,0.144,0.873,0.402c-0.245,0.156-0.367,0.235-0.614,0.393c-0.099-0.194-0.239-0.317-0.624-0.317
	c-0.56,0-1.329,0.474-1.75,1.049C0.508,42.36,0.603,42.81,1.241,42.81c0.294,0,0.623-0.089,0.91-0.224
	c0.157-0.223,0.235-0.333,0.393-0.556H1.754c0.13-0.181,0.195-0.271,0.325-0.451h1.305c-0.348,0.496-0.522,0.745-0.871,1.242
	C2.032,43.071,1.438,43.282,0.882,43.282"/>
<path fill="#FFFFFF" d="M8.887,43.283c-0.965,0-1.201-0.689-0.671-1.526c0.527-0.837,1.623-1.535,2.547-1.535
	s1.164,0.689,0.672,1.527C10.943,42.585,9.85,43.283,8.887,43.283 M10.463,40.7c-0.602,0-1.314,0.469-1.676,1.049
	c-0.361,0.579-0.22,1.057,0.399,1.057c0.62,0,1.331-0.469,1.676-1.049C11.208,41.178,11.064,40.7,10.463,40.7"/>
<path fill="#FFFFFF" d="M19.195,40.272h0.571c-0.904,1.002-1.818,1.995-2.743,2.981h-0.484c0.083-1.193,0.135-1.789,0.26-2.981
	h0.586c-0.106,0.909-0.154,1.365-0.239,2.274C17.977,41.638,18.386,41.182,19.195,40.272"/>
<path fill="#FFFFFF" d="M26.636,40.738h-1.714c-0.125,0.308-0.189,0.462-0.314,0.769h1.536c-0.072,0.186-0.108,0.28-0.181,0.465
	h-1.545c-0.131,0.318-0.195,0.478-0.324,0.795h1.785c-0.071,0.187-0.107,0.28-0.179,0.465h-2.347
	c0.491-1.183,0.737-1.774,1.228-2.959h2.233C26.743,40.459,26.708,40.552,26.636,40.738"/>
<path fill="#FFFFFF" d="M32.844,43.231c-0.188-0.411-0.281-0.619-0.463-1.031h-0.68c-0.127,0.412-0.191,0.62-0.318,1.031h-0.55
	c0.371-1.183,0.558-1.774,0.93-2.958h1.343c0.692,0,1.018,0.358,0.855,0.938c-0.137,0.49-0.523,0.787-0.989,0.9
	c0.204,0.448,0.309,0.673,0.522,1.12H32.844z M32.922,40.746h-0.774c-0.122,0.397-0.184,0.596-0.306,0.994h0.79
	c0.388,0,0.688-0.195,0.776-0.5C33.501,40.915,33.317,40.746,32.922,40.746"/>
<path fill="#FFFFFF" d="M41.277,40.272h0.52c-0.205,1.185-0.308,1.776-0.513,2.959h-0.462c-0.54-0.842-0.8-1.263-1.302-2.104
	c-0.171,0.842-0.256,1.263-0.428,2.104H38.55c0.249-1.183,0.374-1.774,0.622-2.959h0.491c0.479,0.819,0.728,1.229,1.244,2.046
	C41.054,41.501,41.128,41.092,41.277,40.272"/>
<path fill="#FFFFFF" d="M48.061,43.283c-0.965,0-1.564-0.689-1.479-1.526c0.088-0.837,0.813-1.535,1.738-1.535
	c0.924,0,1.526,0.689,1.477,1.527C49.748,42.585,49.024,43.283,48.061,43.283 M48.272,40.7c-0.601,0-1.065,0.469-1.121,1.049
	c-0.057,0.579,0.34,1.057,0.959,1.057c0.618,0,1.082-0.469,1.12-1.049C49.27,41.178,48.874,40.7,48.272,40.7"/>
<path fill="#FFFFFF" d="M62.714,40.746h-1.723c0.03,0.323,0.046,0.485,0.077,0.808h1.546c0.021,0.189,0.033,0.283,0.055,0.474
	h-1.555c0.046,0.48,0.069,0.723,0.114,1.204h-0.551c-0.104-1.183-0.156-1.774-0.261-2.958h2.24
	C62.68,40.462,62.692,40.558,62.714,40.746"/>
<path fill="#FFFFFF" d="M69.873,40.738h-1.715c0.062,0.308,0.091,0.462,0.151,0.769h1.535c0.041,0.186,0.061,0.28,0.102,0.465
	h-1.545c0.061,0.318,0.092,0.478,0.155,0.795h1.784c0.042,0.187,0.062,0.28,0.104,0.465h-2.348
	c-0.224-1.183-0.336-1.774-0.559-2.959h2.233C69.812,40.459,69.832,40.552,69.873,40.738"/>
<path fill="#FFFFFF" d="M76.745,43.231h-1.169c-0.342-1.183-0.514-1.774-0.855-2.958h1.122c0.946,0,1.81,0.637,2.084,1.475
	C78.2,42.585,77.732,43.231,76.745,43.231 M75.987,40.746H75.39c0.237,0.805,0.357,1.208,0.597,2.012h0.614
	c0.653,0,0.948-0.418,0.761-1.002C77.176,41.173,76.624,40.746,75.987,40.746"/>
<path fill="#FFFFFF" d="M84.815,40.738h-1.716c0.125,0.308,0.188,0.462,0.312,0.769h1.537c0.078,0.186,0.119,0.28,0.197,0.465
	h-1.546c0.129,0.318,0.193,0.478,0.321,0.795h1.786c0.08,0.187,0.119,0.28,0.199,0.465h-2.349c-0.469-1.183-0.704-1.774-1.174-2.959
	h2.231C84.694,40.459,84.735,40.552,84.815,40.738"/>
<path fill="#FFFFFF" d="M93.049,43.231c-0.524-0.411-0.785-0.619-1.301-1.031h-0.681c0.208,0.412,0.312,0.62,0.521,1.031h-0.552
	c-0.589-1.183-0.884-1.774-1.473-2.958h1.341c0.692,0,1.31,0.358,1.619,0.938c0.261,0.49,0.114,0.787-0.258,0.9
	c0.567,0.448,0.854,0.673,1.433,1.12H93.049z M91.108,40.746h-0.775c0.201,0.397,0.302,0.596,0.502,0.994h0.79
	c0.387,0,0.531-0.195,0.37-0.5C91.825,40.915,91.501,40.746,91.108,40.746"/>
<path fill="#FFFFFF" d="M101.756,43.232h-0.582c-0.309-0.285-0.463-0.43-0.769-0.715h-1.469c0.047,0.285,0.069,0.43,0.114,0.715
	h-0.564c-0.162-1.192-0.254-1.789-0.46-2.98h0.489C99.591,41.252,100.67,42.244,101.756,43.232 M98.649,40.873
	c0.085,0.473,0.127,0.711,0.206,1.184h1.062C99.406,41.584,99.152,41.346,98.649,40.873"/>
<path fill="#FFFFFF" d="M104.669,40.272h0.529c0.713,0.995,1.071,1.491,1.785,2.485h1.637c0.142,0.19,0.21,0.285,0.351,0.474h-2.198
	C105.932,42.049,105.51,41.457,104.669,40.272"/>
<polygon fill="#FFFFFF" points="87.793,21.634 93.929,32.688 103.489,32.688 107.387,38.339 89.727,38.339 82.051,21.634 "/>
<path fill="#FFFFFF" d="M81.022,21.634H75.28l0.516,1.487c-0.602-0.295-1.214-0.551-1.843-0.768
	c-0.624-0.217-1.268-0.396-1.937-0.538c-0.666-0.142-1.359-0.248-2.086-0.316c-0.724-0.071-1.483-0.107-2.284-0.107
	c-0.411,0-0.802,0.016-1.173,0.044c-1.218,2.408-3.055,4.448-5.302,5.911c0.142,0.315,0.322,0.607,0.544,0.878
	c0.488,0.592,1.156,1.075,1.959,1.478c0.814,0.408,1.761,0.731,2.792,1.005c1.041,0.273,2.165,0.493,3.327,0.695
	c0.557,0.095,1.018,0.184,1.399,0.272c0.383,0.088,0.685,0.176,0.923,0.271c0.237,0.096,0.41,0.195,0.531,0.308
	c0.123,0.112,0.194,0.237,0.231,0.382c0.033,0.125,0.028,0.235-0.014,0.334c-0.044,0.098-0.126,0.182-0.252,0.25
	c-0.125,0.067-0.293,0.12-0.508,0.156c-0.213,0.034-0.474,0.054-0.781,0.054c-0.603,0-1.221-0.041-1.853-0.125
	c-0.627-0.083-1.266-0.211-1.904-0.386c-0.635-0.176-1.27-0.396-1.896-0.665c-0.621-0.269-1.231-0.585-1.824-0.951l-1.896,2.32
	l-2.884-5.131c-1.807,0.806-3.799,1.269-5.897,1.309l0.563,1.35h-3.639l0.729-1.485c-1.926-0.262-3.737-0.882-5.364-1.792
	L40.9,35.058l-1.845-3.351c0.664-0.261,1.275-0.565,1.825-0.916c0.544-0.347,1.027-0.736,1.438-1.17
	c0.407-0.427,0.743-0.895,1.001-1.402c0.225-0.443,0.389-0.914,0.489-1.414c-1.781-1.325-3.265-3.03-4.326-4.995
	c-0.169-0.026-0.342-0.05-0.523-0.071c-0.61-0.068-1.294-0.104-2.054-0.104h-8.392l-1.065,2.462c0.01-0.132,0.009-0.257-0.003-0.375
	c-0.013-0.119-0.037-0.23-0.07-0.335s-0.077-0.203-0.128-0.295s-0.11-0.179-0.178-0.258c-0.166-0.197-0.374-0.372-0.628-0.522
	c-0.253-0.149-0.553-0.274-0.907-0.374c-0.351-0.1-0.757-0.176-1.223-0.226c-0.466-0.052-0.993-0.077-1.588-0.077h-9.618
	L1.584,38.339h12.171c0.938,0,1.833-0.07,2.683-0.205c0.847-0.134,1.644-0.331,2.386-0.58c0.738-0.249,1.417-0.55,2.035-0.896
	c0.612-0.341,1.163-0.725,1.646-1.143l-1.223,2.823h7.341l1.905-5.651h1.454l2.349,5.651h4.486h3.889h3.953l1.371-2.765h7.408
	l1.196,2.765h7.967l-0.662-1.177c0.609,0.257,1.245,0.482,1.9,0.679c0.66,0.196,1.342,0.361,2.037,0.495
	c0.699,0.133,1.414,0.233,2.141,0.301c0.726,0.066,1.463,0.102,2.205,0.102c1.093,0,2.091-0.095,2.979-0.275
	c0.885-0.182,1.658-0.448,2.309-0.793c0.646-0.342,1.17-0.758,1.564-1.24c0.388-0.477,0.649-1.016,0.775-1.609l1.219,3.519h7.341
	L81.022,21.634z M18.147,31.909l-0.027,0.053c-0.1,0.191-0.24,0.372-0.417,0.531c-0.177,0.162-0.393,0.306-0.642,0.424
	c-0.25,0.117-0.535,0.213-0.851,0.277c-0.316,0.065-0.663,0.1-1.037,0.1h-3.428l1.59-2.665h3.329c0.36,0,0.656,0.031,0.894,0.093
	c0.235,0.06,0.413,0.147,0.531,0.26c0.121,0.112,0.186,0.248,0.193,0.404S18.246,31.718,18.147,31.909 M20.65,26.149l-0.023,0.044
	c-0.088,0.168-0.206,0.318-0.354,0.448c-0.15,0.13-0.33,0.242-0.541,0.331c-0.211,0.091-0.455,0.159-0.729,0.205
	s-0.579,0.069-0.914,0.069h-2.736l1.263-2.116h2.623c0.325,0,0.596,0.021,0.815,0.064c0.221,0.044,0.39,0.109,0.507,0.195
	c0.116,0.086,0.184,0.192,0.197,0.319C20.774,25.837,20.737,25.983,20.65,26.149 M24.754,30.318
	c-0.087-0.212-0.209-0.405-0.362-0.58c-0.154-0.173-0.339-0.329-0.553-0.471c-0.213-0.14-0.454-0.265-0.722-0.377
	c-0.267-0.113-0.558-0.212-0.873-0.299c0.467-0.121,0.915-0.264,1.341-0.431c0.423-0.165,0.823-0.354,1.194-0.566
	c0.369-0.211,0.709-0.446,1.016-0.704c0.304-0.257,0.574-0.537,0.808-0.841L24.754,30.318z M37.557,26.98l-0.012,0.045
	c-0.062,0.239-0.176,0.455-0.334,0.645c-0.16,0.19-0.365,0.354-0.611,0.486c-0.248,0.133-0.535,0.236-0.856,0.307
	c-0.322,0.07-0.678,0.105-1.061,0.105h-2.766l1.024-3.038h2.666c0.352,0,0.666,0.029,0.934,0.089
	c0.269,0.059,0.491,0.146,0.662,0.266c0.172,0.119,0.292,0.269,0.354,0.45C37.619,26.518,37.622,26.732,37.557,26.98 M76.503,28.543
	c-0.583-0.32-1.23-0.594-1.937-0.83c-0.703-0.234-1.464-0.435-2.278-0.608c-0.81-0.172-1.673-0.321-2.582-0.454
	c-0.509-0.076-0.925-0.149-1.264-0.224s-0.601-0.148-0.801-0.226c-0.201-0.076-0.341-0.156-0.436-0.242
	c-0.094-0.087-0.143-0.179-0.163-0.279l-0.009-0.043c-0.017-0.09-0.007-0.174,0.032-0.247c0.038-0.074,0.105-0.14,0.205-0.193
	c0.097-0.054,0.225-0.097,0.387-0.126c0.16-0.027,0.352-0.043,0.579-0.043c0.422,0,0.872,0.027,1.341,0.083
	c0.47,0.058,0.961,0.144,1.462,0.262c0.502,0.119,1.017,0.27,1.531,0.455c0.52,0.188,1.041,0.41,1.556,0.67l1.77-3.08l2.17,6.257
	C77.615,29.238,77.091,28.866,76.503,28.543"/>
<path fill="#FFFFFF" d="M67.464,14.584c0,8.055-6.53,14.584-14.584,14.584c-8.055,0-14.584-6.529-14.584-14.584
	C38.296,6.528,44.826,0,52.88,0C60.934,0,67.464,6.528,67.464,14.584"/>
<path fill="#FFCE00" d="M55.375,7.335c-7.91-2.724-15.16-2.504-16.192,0.492l-1.074,3.122c1.031-2.995,8.28-3.216,16.191-0.492
	c7.911,2.726,13.488,7.362,12.458,10.357l1.074-3.123C68.865,14.696,63.287,10.06,55.375,7.335"/>
<path fill="#0033A0" d="M54.301,10.458C46.39,7.734,39.14,7.954,38.108,10.95c-0.231,0.671-0.13,1.425,0.255,2.222
	c0.016-0.154,0.034-0.309,0.052-0.463c-0.17-0.547-0.185-1.066-0.02-1.542c0.988-2.87,8.057-3.038,15.79-0.375
	c7.734,2.662,13.202,7.147,12.215,10.019c-0.164,0.474-0.495,0.874-0.966,1.199c-0.079,0.135-0.161,0.268-0.244,0.398
	c0.792-0.391,1.336-0.922,1.566-1.594C67.79,17.819,62.211,13.183,54.301,10.458"/>
<path fill="#FFCE00" d="M38.928,10.323c-0.246,0.249-0.427,0.53-0.534,0.844c-0.164,0.475-0.15,0.994,0.021,1.543
	C38.52,11.892,38.693,11.094,38.928,10.323"/>
<path fill="#FFCE00" d="M65.435,22.01c0.471-0.326,0.801-0.726,0.964-1.2c0.107-0.313,0.139-0.646,0.098-0.993
	C66.204,20.581,65.846,21.313,65.435,22.01"/>
<path fill="#1D5632" d="M40.376,7.326c0.085-0.133,0.182-0.258,0.293-0.371c0.111-0.114,0.233-0.214,0.367-0.302
	c0.134-0.086,0.273-0.152,0.419-0.196c0.147-0.045,0.271-0.062,0.369-0.045c0.097,0.016,0.171,0.056,0.22,0.122
	c0.049,0.063,0.075,0.15,0.076,0.258s-0.023,0.23-0.071,0.371c-0.047,0.137-0.112,0.271-0.196,0.404
	c-0.084,0.132-0.18,0.254-0.291,0.365c-0.109,0.112-0.231,0.211-0.363,0.296c-0.134,0.086-0.273,0.151-0.421,0.197
	c-0.146,0.045-0.268,0.06-0.366,0.045c-0.101-0.015-0.175-0.053-0.225-0.117c-0.05-0.062-0.075-0.146-0.077-0.252
	c-0.002-0.106,0.021-0.227,0.068-0.364C40.227,7.597,40.292,7.46,40.376,7.326 M40.545,7.831c-0.007,0.069,0,0.127,0.02,0.174
	c0.021,0.048,0.058,0.079,0.11,0.094c0.054,0.018,0.127,0.011,0.222-0.018c0.094-0.029,0.181-0.072,0.259-0.128
	c0.077-0.057,0.147-0.121,0.21-0.193c0.061-0.072,0.113-0.148,0.157-0.229c0.046-0.08,0.08-0.16,0.107-0.239
	c0.029-0.083,0.047-0.16,0.055-0.231c0.009-0.071,0.002-0.132-0.017-0.18c-0.021-0.048-0.059-0.08-0.111-0.096
	c-0.053-0.017-0.127-0.009-0.221,0.019c-0.094,0.029-0.18,0.072-0.258,0.128C41,6.988,40.929,7.053,40.869,7.127
	c-0.062,0.072-0.116,0.151-0.161,0.234s-0.082,0.165-0.111,0.248C40.569,7.688,40.552,7.762,40.545,7.831"/>
<path fill="#1D5632" d="M43.622,6.104c0.089-0.01,0.165-0.005,0.226,0.016c0.062,0.021,0.11,0.051,0.146,0.094
	c0.034,0.041,0.054,0.092,0.059,0.153c0.005,0.059-0.004,0.124-0.028,0.196c-0.037,0.11-0.097,0.21-0.174,0.296
	c-0.075,0.086-0.178,0.155-0.303,0.209l-0.002,0.005c0.049,0.008,0.087,0.025,0.112,0.051c0.024,0.026,0.041,0.057,0.05,0.094
	s0.01,0.079,0.004,0.125c-0.006,0.047-0.016,0.095-0.028,0.142c-0.01,0.028-0.019,0.063-0.03,0.104
	c-0.014,0.04-0.023,0.082-0.034,0.124c-0.009,0.041-0.016,0.08-0.019,0.117C43.595,7.865,43.6,7.896,43.612,7.92l-0.436,0.045
	c-0.004-0.058,0.006-0.127,0.029-0.21c0.023-0.082,0.042-0.16,0.056-0.233c0.021-0.097,0.014-0.166-0.019-0.207
	c-0.033-0.04-0.104-0.056-0.213-0.043l-0.435,0.044l-0.254,0.735l-0.435,0.046l0.647-1.882L43.622,6.104z M43.173,6.971
	c0.101-0.01,0.183-0.04,0.247-0.086c0.064-0.048,0.112-0.119,0.146-0.214c0.03-0.091,0.028-0.155-0.007-0.19
	c-0.035-0.036-0.104-0.05-0.203-0.039L42.879,6.49l-0.182,0.531L43.173,6.971z"/>
<path fill="#1D5632" d="M45.296,6.05c0.128,0.002,0.241,0.022,0.339,0.063c0.098,0.039,0.174,0.099,0.228,0.177
	s0.084,0.176,0.089,0.292c0.005,0.117-0.019,0.253-0.073,0.41c-0.047,0.136-0.108,0.263-0.186,0.379
	c-0.077,0.115-0.168,0.214-0.272,0.298s-0.221,0.149-0.35,0.196s-0.27,0.069-0.423,0.067L43.79,7.922l0.648-1.882L45.296,6.05z
	 M44.738,7.584c0.063,0.001,0.128-0.008,0.193-0.027c0.066-0.019,0.13-0.05,0.192-0.094s0.119-0.103,0.171-0.174
	c0.055-0.072,0.098-0.16,0.134-0.264c0.032-0.095,0.053-0.181,0.06-0.258c0.006-0.076-0.003-0.142-0.029-0.196
	c-0.025-0.056-0.071-0.098-0.134-0.127c-0.064-0.03-0.148-0.046-0.256-0.048l-0.313-0.004L44.348,7.58L44.738,7.584z"/>
<polygon fill="#1D5632" points="47.885,6.22 47.765,6.568 46.719,6.472 46.579,6.874 47.542,6.964 47.429,7.285 46.469,7.195 
	46.31,7.658 47.379,7.757 47.259,8.104 45.754,7.966 46.402,6.084 "/>
<polygon fill="#1D5632" points="48.709,6.34 48.722,7.71 48.728,7.711 49.609,6.489 50.216,6.59 49.568,8.472 49.165,8.404 
	49.624,7.07 49.618,7.069 48.677,8.324 48.344,8.269 48.318,6.869 48.312,6.867 47.857,8.188 47.454,8.121 48.101,6.239 "/>
<polygon fill="#1D5632" points="52.612,7.163 52.492,7.511 51.473,7.258 51.333,7.66 52.27,7.893 52.158,8.215 51.223,7.982 
	51.064,8.444 52.105,8.703 51.986,9.05 50.519,8.686 51.167,6.804 "/>
<path fill="#1D5632" d="M54.344,7.683c0.119,0.038,0.213,0.087,0.285,0.148c0.071,0.06,0.123,0.127,0.156,0.199
	s0.049,0.148,0.048,0.229c-0.001,0.081-0.014,0.159-0.041,0.236c-0.025,0.074-0.063,0.146-0.112,0.211
	c-0.049,0.064-0.109,0.118-0.182,0.157c-0.071,0.039-0.154,0.063-0.25,0.072c-0.095,0.007-0.201-0.008-0.32-0.045l-0.438-0.14
	l-0.233,0.676L52.84,9.295l0.647-1.882L54.344,7.683z M53.925,8.533c0.048,0.016,0.095,0.025,0.141,0.032
	c0.047,0.009,0.091,0.006,0.131-0.004c0.041-0.009,0.079-0.028,0.112-0.06c0.031-0.03,0.059-0.075,0.08-0.134
	c0.021-0.062,0.026-0.113,0.02-0.155c-0.009-0.044-0.024-0.082-0.052-0.112c-0.027-0.031-0.062-0.057-0.103-0.078
	c-0.043-0.021-0.088-0.039-0.136-0.054l-0.323-0.103L53.6,8.43L53.925,8.533z"/>
<path fill="#1D5632" d="M56.135,8.304c0.083,0.03,0.154,0.071,0.212,0.124c0.057,0.052,0.102,0.109,0.134,0.176
	c0.032,0.063,0.049,0.133,0.055,0.204c0.004,0.071-0.008,0.143-0.032,0.216c-0.038,0.11-0.095,0.198-0.168,0.261
	c-0.074,0.065-0.171,0.1-0.29,0.103l-0.002,0.005c0.046,0.034,0.081,0.07,0.104,0.11c0.022,0.041,0.038,0.087,0.045,0.134
	C56.2,9.683,56.2,9.73,56.193,9.781s-0.016,0.102-0.028,0.15c-0.01,0.031-0.021,0.066-0.031,0.106
	c-0.012,0.042-0.024,0.085-0.034,0.128c-0.01,0.044-0.017,0.088-0.021,0.127c-0.002,0.042,0,0.079,0.011,0.113l-0.412-0.15
	c-0.002-0.068,0.01-0.145,0.033-0.229c0.021-0.085,0.042-0.168,0.058-0.247c0.02-0.103,0.014-0.186-0.015-0.248
	c-0.03-0.062-0.096-0.112-0.199-0.149l-0.411-0.151L54.89,9.968l-0.411-0.15l0.648-1.882L56.135,8.304z M55.695,9.102
	c0.096,0.034,0.173,0.04,0.234,0.015c0.062-0.024,0.108-0.086,0.142-0.18c0.031-0.092,0.03-0.167-0.003-0.225
	c-0.032-0.059-0.096-0.105-0.19-0.141l-0.45-0.165l-0.183,0.531L55.695,9.102z"/>
<path fill="#1D5632" d="M56.665,9.127c0.082-0.103,0.178-0.183,0.285-0.238c0.107-0.059,0.227-0.088,0.356-0.093
	c0.129-0.003,0.265,0.024,0.405,0.083c0.142,0.062,0.26,0.141,0.354,0.237c0.094,0.1,0.163,0.208,0.209,0.331
	c0.047,0.122,0.069,0.252,0.069,0.39c0,0.139-0.024,0.277-0.073,0.418c-0.048,0.138-0.111,0.257-0.193,0.357
	c-0.081,0.101-0.176,0.179-0.283,0.235c-0.108,0.055-0.227,0.085-0.354,0.087c-0.13,0.003-0.265-0.025-0.407-0.085
	c-0.14-0.061-0.259-0.139-0.353-0.235c-0.095-0.098-0.166-0.206-0.213-0.327c-0.046-0.121-0.07-0.249-0.07-0.385
	c0-0.135,0.022-0.273,0.07-0.409C56.515,9.353,56.582,9.23,56.665,9.127 M56.819,9.905c-0.008,0.082-0.002,0.161,0.017,0.238
	c0.018,0.076,0.053,0.146,0.104,0.209c0.051,0.062,0.121,0.113,0.213,0.15c0.09,0.039,0.174,0.054,0.25,0.044
	c0.075-0.009,0.143-0.034,0.201-0.077c0.062-0.044,0.113-0.1,0.157-0.166c0.043-0.067,0.079-0.141,0.106-0.22
	c0.027-0.082,0.046-0.166,0.056-0.251c0.008-0.085,0.003-0.166-0.016-0.242c-0.018-0.078-0.054-0.148-0.104-0.211
	s-0.122-0.113-0.212-0.151c-0.091-0.039-0.174-0.053-0.25-0.044s-0.143,0.035-0.204,0.08c-0.06,0.044-0.111,0.101-0.156,0.171
	c-0.045,0.068-0.082,0.145-0.11,0.228C56.843,9.742,56.826,9.823,56.819,9.905"/>
<path fill="#1D5632" d="M59.196,11.778c-0.099-0.004-0.19-0.027-0.278-0.07c-0.136-0.065-0.251-0.152-0.343-0.256
	s-0.16-0.218-0.205-0.342c-0.045-0.125-0.067-0.257-0.066-0.395c0-0.14,0.024-0.276,0.072-0.412
	c0.048-0.143,0.114-0.263,0.195-0.362c0.081-0.101,0.174-0.178,0.28-0.231c0.106-0.053,0.223-0.077,0.35-0.074
	c0.127,0.002,0.259,0.036,0.396,0.104c0.092,0.045,0.176,0.104,0.251,0.175c0.076,0.07,0.14,0.152,0.189,0.241
	c0.05,0.091,0.083,0.188,0.1,0.292c0.017,0.105,0.011,0.214-0.015,0.326l-0.376-0.185c0.013-0.117-0.005-0.219-0.054-0.304
	c-0.05-0.085-0.12-0.15-0.216-0.198c-0.088-0.043-0.17-0.062-0.243-0.057c-0.074,0.006-0.142,0.03-0.2,0.072
	c-0.061,0.042-0.111,0.097-0.155,0.165c-0.044,0.069-0.081,0.145-0.11,0.228c-0.026,0.079-0.044,0.16-0.053,0.244
	c-0.008,0.083-0.003,0.164,0.015,0.242c0.019,0.079,0.053,0.151,0.102,0.218s0.118,0.12,0.207,0.164
	c0.13,0.063,0.242,0.078,0.337,0.044c0.095-0.035,0.171-0.115,0.228-0.242l-0.396-0.192l0.106-0.309l0.752,0.367l-0.352,1.02
	l-0.251-0.124l0.035-0.233C59.395,11.754,59.293,11.782,59.196,11.778"/>
<path fill="#1D5632" d="M61.474,10.79c0.077,0.045,0.143,0.098,0.195,0.159c0.053,0.063,0.094,0.131,0.122,0.202
	c0.028,0.073,0.043,0.147,0.045,0.224c0.002,0.075-0.01,0.148-0.035,0.221c-0.037,0.111-0.092,0.195-0.163,0.251
	c-0.07,0.057-0.161,0.079-0.273,0.067l-0.001,0.005c0.042,0.04,0.072,0.084,0.094,0.13c0.021,0.047,0.034,0.094,0.04,0.145
	c0.006,0.05,0.005,0.103-0.003,0.154c-0.007,0.053-0.018,0.104-0.03,0.153c-0.009,0.031-0.019,0.066-0.032,0.108
	c-0.011,0.041-0.022,0.084-0.032,0.129c-0.013,0.043-0.02,0.087-0.022,0.13c-0.005,0.044-0.002,0.083,0.006,0.119l-0.381-0.215
	c-0.001-0.072,0.012-0.15,0.035-0.235c0.023-0.087,0.043-0.17,0.06-0.249c0.021-0.106,0.019-0.193-0.008-0.264
	c-0.026-0.069-0.088-0.131-0.183-0.185l-0.381-0.216l-0.254,0.735l-0.382-0.216l0.648-1.882L61.474,10.79z M61.044,11.564
	c0.087,0.049,0.16,0.066,0.218,0.048c0.06-0.018,0.105-0.073,0.138-0.169c0.03-0.091,0.031-0.169,0.003-0.235
	c-0.029-0.065-0.09-0.124-0.177-0.174l-0.417-0.235l-0.182,0.53L61.044,11.564z"/>
<polygon fill="#1D5632" points="63.401,11.997 63.281,12.345 62.4,11.771 62.262,12.175 63.07,12.7 62.958,13.022 62.15,12.496 
	61.992,12.957 62.891,13.543 62.771,13.892 61.504,13.066 62.154,11.184 "/>
<path fill="#1D5632" d="M63.358,13.744c0.004,0.058,0.018,0.113,0.039,0.165c0.022,0.051,0.054,0.1,0.092,0.146
	c0.037,0.047,0.08,0.087,0.126,0.122c0.029,0.024,0.065,0.046,0.103,0.066s0.075,0.035,0.111,0.041
	c0.038,0.006,0.072,0.002,0.103-0.013c0.031-0.016,0.056-0.046,0.071-0.094c0.018-0.051,0.019-0.103,0.002-0.155
	c-0.018-0.053-0.044-0.106-0.08-0.161c-0.037-0.056-0.081-0.112-0.132-0.17c-0.05-0.06-0.101-0.121-0.152-0.184
	c-0.053-0.063-0.103-0.129-0.15-0.196c-0.048-0.068-0.087-0.141-0.116-0.215c-0.031-0.074-0.049-0.151-0.057-0.233
	c-0.006-0.081,0.007-0.166,0.035-0.251c0.034-0.097,0.08-0.167,0.14-0.212c0.059-0.045,0.125-0.07,0.197-0.074
	s0.148,0.008,0.228,0.04c0.078,0.032,0.152,0.074,0.224,0.129c0.083,0.063,0.159,0.134,0.227,0.214
	c0.068,0.08,0.124,0.167,0.167,0.262c0.041,0.096,0.066,0.192,0.076,0.296c0.008,0.103-0.008,0.21-0.045,0.318l-0.337-0.257
	c0.017-0.059,0.023-0.114,0.02-0.163c-0.006-0.05-0.019-0.096-0.039-0.139c-0.021-0.042-0.048-0.082-0.08-0.118
	c-0.033-0.037-0.072-0.071-0.115-0.104c-0.028-0.021-0.057-0.039-0.087-0.055c-0.031-0.014-0.06-0.021-0.089-0.021
	c-0.03,0-0.056,0.007-0.079,0.021c-0.023,0.016-0.043,0.043-0.057,0.084c-0.014,0.036-0.018,0.072-0.014,0.104
	s0.021,0.069,0.049,0.115c0.027,0.047,0.068,0.103,0.123,0.169c0.056,0.065,0.125,0.152,0.216,0.258
	c0.026,0.029,0.062,0.073,0.108,0.132c0.047,0.059,0.089,0.128,0.126,0.208s0.063,0.169,0.078,0.264
	c0.015,0.097,0.004,0.198-0.032,0.303c-0.029,0.086-0.071,0.156-0.125,0.208c-0.054,0.053-0.117,0.084-0.191,0.097
	c-0.073,0.011-0.156,0-0.248-0.032c-0.093-0.034-0.193-0.091-0.301-0.173c-0.086-0.067-0.166-0.146-0.24-0.232
	c-0.073-0.089-0.131-0.184-0.176-0.286c-0.044-0.103-0.07-0.21-0.077-0.322c-0.008-0.112,0.008-0.228,0.05-0.342l0.336,0.258
	C63.362,13.624,63.353,13.687,63.358,13.744"/>
<path fill="#1D5632" d="M64.75,14.872c0.002,0.06,0.014,0.119,0.033,0.173c0.021,0.055,0.047,0.106,0.081,0.158
	c0.035,0.05,0.073,0.095,0.115,0.134c0.028,0.026,0.059,0.053,0.094,0.078c0.034,0.023,0.069,0.042,0.104,0.05
	c0.033,0.009,0.064,0.008,0.095-0.005c0.028-0.014,0.052-0.043,0.069-0.091c0.017-0.052,0.019-0.104,0.005-0.159
	c-0.015-0.056-0.038-0.112-0.071-0.172s-0.072-0.121-0.118-0.187c-0.046-0.063-0.092-0.131-0.138-0.201
	c-0.047-0.067-0.094-0.14-0.137-0.214c-0.041-0.074-0.076-0.149-0.103-0.229c-0.027-0.079-0.041-0.16-0.046-0.244
	c-0.004-0.085,0.009-0.17,0.039-0.256c0.033-0.098,0.078-0.166,0.134-0.207s0.118-0.062,0.185-0.061
	c0.068,0.002,0.139,0.021,0.211,0.061c0.072,0.038,0.142,0.088,0.205,0.149c0.076,0.071,0.146,0.151,0.207,0.239
	c0.062,0.088,0.111,0.182,0.147,0.283c0.038,0.1,0.058,0.204,0.065,0.31c0.005,0.106-0.013,0.214-0.05,0.323l-0.307-0.292
	c0.017-0.058,0.024-0.113,0.021-0.165c-0.002-0.052-0.014-0.1-0.032-0.146c-0.018-0.045-0.042-0.088-0.071-0.128
	c-0.031-0.041-0.064-0.079-0.104-0.116c-0.026-0.024-0.053-0.045-0.081-0.062s-0.057-0.027-0.083-0.029s-0.052,0.004-0.074,0.018
	c-0.023,0.013-0.04,0.04-0.055,0.08c-0.013,0.037-0.019,0.073-0.015,0.104c0.003,0.033,0.018,0.075,0.042,0.124
	c0.025,0.051,0.062,0.11,0.112,0.184c0.049,0.073,0.113,0.166,0.192,0.282c0.025,0.031,0.058,0.081,0.1,0.144
	c0.042,0.065,0.079,0.139,0.111,0.224c0.034,0.085,0.056,0.179,0.067,0.279c0.011,0.1-0.001,0.203-0.038,0.308
	c-0.029,0.087-0.069,0.154-0.121,0.204c-0.051,0.05-0.11,0.077-0.18,0.082c-0.069,0.006-0.146-0.012-0.23-0.053
	c-0.086-0.042-0.178-0.108-0.275-0.202c-0.08-0.076-0.153-0.161-0.218-0.258c-0.067-0.097-0.119-0.2-0.158-0.308
	c-0.038-0.109-0.061-0.223-0.064-0.338c-0.005-0.117,0.015-0.232,0.056-0.348l0.307,0.292C64.758,14.749,64.749,14.812,64.75,14.872
	"/>
<path fill="#1D5632" d="M66.095,15c0.068-0.083,0.142-0.136,0.222-0.157c0.078-0.022,0.163-0.009,0.252,0.04
	c0.088,0.047,0.176,0.134,0.266,0.258c0.089,0.124,0.161,0.262,0.214,0.411c0.052,0.148,0.088,0.302,0.105,0.46
	c0.019,0.157,0.02,0.314,0.004,0.472c-0.015,0.156-0.047,0.305-0.095,0.445c-0.048,0.137-0.104,0.248-0.172,0.33
	s-0.14,0.133-0.219,0.152c-0.079,0.021-0.163,0.006-0.25-0.043c-0.087-0.048-0.177-0.134-0.266-0.26
	c-0.089-0.124-0.161-0.26-0.214-0.409c-0.055-0.148-0.091-0.302-0.108-0.458c-0.019-0.155-0.021-0.311-0.006-0.466
	c0.015-0.154,0.046-0.3,0.093-0.438C65.969,15.197,66.029,15.084,66.095,15 M66.115,15.948c-0.015,0.091-0.021,0.183-0.015,0.278
	c0.005,0.094,0.02,0.187,0.048,0.279c0.026,0.092,0.069,0.179,0.127,0.259c0.057,0.079,0.112,0.129,0.166,0.148
	c0.052,0.021,0.101,0.018,0.146-0.008c0.046-0.025,0.087-0.066,0.124-0.126c0.038-0.058,0.07-0.128,0.097-0.207
	c0.028-0.082,0.051-0.169,0.065-0.263s0.021-0.188,0.017-0.283s-0.02-0.189-0.048-0.281c-0.026-0.091-0.069-0.178-0.127-0.258
	s-0.112-0.13-0.165-0.15c-0.052-0.019-0.101-0.016-0.146,0.011c-0.047,0.025-0.088,0.068-0.126,0.131
	c-0.038,0.061-0.072,0.133-0.101,0.215C66.15,15.772,66.129,15.858,66.115,15.948"/>
<polygon fill="#0033A0" points="52.427,26.737 52.327,26.94 52.067,26.955 52.268,27.096 52.194,27.291 52.427,27.179 
	52.647,27.291 52.582,27.102 52.788,26.96 52.523,26.943 "/>
<polygon fill="#0033A0" points="57.152,7.876 57.318,7.155 56.726,6.656 57.478,6.636 57.75,5.987 58.06,6.677 58.817,6.773 
	58.254,7.211 58.47,7.932 57.809,7.5 "/>
<polygon fill="#0033A0" points="39.917,11.055 39.711,11.613 39.267,11.687 39.581,12.037 39.444,12.62 39.847,12.289 
	40.224,12.592 40.139,12.019 40.541,11.607 40.055,11.596 "/>
<polygon fill="#0033A0" points="39.668,18.873 39.567,19.308 39.208,19.288 39.514,19.632 39.474,20.075 39.755,19.873 
	40.107,20.171 39.965,19.703 40.236,19.426 39.85,19.347 "/>
<path fill="#0033A0" d="M40.855,17.549c-0.012,0.011-0.155,0.547-0.155,0.547l-0.475,0.003l0.378,0.404l-0.076,0.564l0.396-0.265
	l0.446,0.352l-0.161-0.59l0.378-0.358l-0.514-0.08L40.855,17.549z"/>
<polygon fill="#0033A0" points="42.06,16.981 41.958,17.294 41.68,17.297 41.899,17.527 41.844,17.846 42.081,17.687 42.333,17.874 
	42.247,17.551 42.481,17.338 42.176,17.302 "/>
<polygon fill="#0033A0" points="43.07,22.121 43.381,21.941 43.739,22.194 43.611,21.788 43.892,21.55 43.489,21.477 43.309,21.067 
	43.195,21.442 42.813,21.428 43.129,21.727 "/>
<polygon fill="#0033A0" points="43.725,19.379 43.569,19.84 43.108,19.84 43.487,20.197 43.399,20.669 43.785,20.446 44.214,20.741 
	44.061,20.25 44.419,19.943 43.936,19.875 "/>
<polygon fill="#0033A0" points="45.555,22.576 45.376,23.091 44.805,23.069 45.277,23.477 45.186,23.994 45.65,23.756 
	46.167,24.093 45.981,23.547 46.413,23.225 45.815,23.135 "/>
<polygon fill="#0033A0" points="45.797,14.375 45.597,14.901 45.076,14.94 45.469,15.293 45.352,15.832 45.793,15.544 
	46.238,15.848 46.111,15.317 46.515,14.959 45.986,14.909 "/>
<polygon fill="#0033A0" points="56.336,13.332 56.152,13.791 55.676,13.824 56.038,14.138 55.915,14.604 56.33,14.35 56.731,14.615 
	56.618,14.141 56.989,13.835 56.515,13.798 "/>
<polygon fill="#0033A0" points="50.132,18.537 49.951,18.971 49.486,18.995 49.844,19.302 49.729,19.754 50.137,19.512 
	50.536,19.767 50.42,19.322 50.788,19.018 50.311,18.98 "/>
<polygon fill="#0033A0" points="51.381,19.616 51.25,19.941 50.897,19.961 51.165,20.184 51.077,20.521 51.383,20.344 
	51.688,20.537 51.6,20.195 51.879,19.978 51.518,19.949 "/>
<polygon fill="#0033A0" points="54.112,18.259 53.887,18.785 53.33,18.82 53.752,19.18 53.607,19.707 54.092,19.419 54.567,19.716 
	54.436,19.18 54.881,18.82 54.315,18.792 "/>
<polygon fill="#0033A0" points="52.536,16.769 52.32,17.31 51.748,17.343 52.176,17.706 52.04,18.259 52.526,17.964 53.008,18.271 
	52.874,17.723 53.318,17.354 52.749,17.319 "/>
<polygon fill="#0033A0" points="52.398,21.532 52.146,22.107 51.493,22.145 51.997,22.541 51.836,23.122 52.389,22.809 
	52.946,23.133 52.79,22.548 53.291,22.165 52.643,22.121 "/>
<polygon fill="#0033A0" points="55.81,23.335 55.623,23.741 55.165,23.779 55.5,24.039 55.373,24.438 55.776,24.216 56.146,24.41 
	56.057,24.029 56.416,23.744 55.965,23.73 "/>
<polygon fill="#0033A0" points="57.034,24.989 56.805,25.412 56.282,25.468 56.659,25.735 56.506,26.151 56.96,25.912 57.37,26.113 
	57.281,25.7 57.689,25.398 57.187,25.402 "/>
<polygon fill="#0033A0" points="57.939,24.046 58.369,23.991 58.566,23.602 58.699,23.97 59.115,23.966 58.771,24.244 
	58.837,24.629 58.493,24.438 58.113,24.67 58.258,24.282 "/>
<polygon fill="#0033A0" points="60.068,25.884 59.867,26.22 59.472,26.297 59.735,26.477 59.589,26.81 59.95,26.602 60.249,26.727 
	60.206,26.418 60.536,26.165 60.158,26.188 "/>
<polygon fill="#0033A0" points="60.284,24.41 60.051,24.847 59.568,24.923 59.905,25.166 59.735,25.589 60.168,25.318 
	60.529,25.506 60.47,25.104 60.87,24.785 60.409,24.805 "/>
<polygon fill="#0033A0" points="60.392,23.132 60.199,23.525 59.778,23.592 60.068,23.823 59.924,24.211 60.303,23.973 
	60.625,24.146 60.568,23.776 60.912,23.487 60.507,23.498 "/>
<polygon fill="#0033A0" points="61.815,23.017 61.623,23.401 61.23,23.473 61.499,23.692 61.357,24.074 61.712,23.835 
	62.014,23.999 61.969,23.635 62.301,23.349 61.918,23.372 "/>
<polygon fill="#0033A0" points="63.182,22.164 62.97,22.62 62.52,22.711 62.818,22.967 62.647,23.42 63.049,23.13 63.375,23.322 
	63.337,22.895 63.7,22.559 63.289,22.583 "/>
<polygon fill="#0033A0" points="63.939,20.945 63.733,21.405 63.293,21.489 63.59,21.762 63.432,22.224 63.826,21.934 64.14,22.136 
	64.099,21.696 64.459,21.353 64.05,21.375 "/>
<polygon fill="#0033A0" points="63.569,19.366 63.33,19.943 62.786,20.026 63.166,20.374 62.979,20.961 63.463,20.607 
	63.866,20.873 63.797,20.323 64.233,19.907 63.716,19.912 "/>
<polygon fill="#0033A0" points="65.395,19.575 65.233,19.973 64.892,20.042 65.121,20.273 64.996,20.675 65.303,20.429 
	65.548,20.606 65.523,20.219 65.792,19.938 65.478,19.952 "/>
</svg>
